@startuml

skinparam state {
  BackgroundColor #faf4b4
  BorderColor #c90000
}

skinparam note {
  BackgroundColor #f5f5f5
}

title Caso de Uso - Creación de Asignatura

[*] --> inicio
note on link
  Coordinador académico inicia:
  - Proceso de creación de asignatura
end note

state inicio {
  [*] --> definir_parametros_asignatura
  state "Definir parámetros de la asignatura" as definir_parametros_asignatura

  definir_parametros_asignatura --> crear_plan_estudio
  note right of definir_parametros_asignatura
    Coordinador define:
    - Contenidos y evaluaciones de la asignatura
  end note

  state "Crear plan de estudio" as crear_plan_estudio

  crear_plan_estudio --> confirmar_creacion
  note right of crear_plan_estudio
    Coordinador confirma:
    - Creación de la asignatura
  end note

  state "Confirmar creación" as confirmar_creacion
  confirmar_creacion --> [*]
  note right of confirmar_creacion
    Asignatura creada y lista para ser incluida en el programa académico
  end note
}

@enduml

